name rise30.9205peak61.366fall85.3838.mot
datacolumns 19
datarows 20
range 1.91333000000000 1.94499600000000
endheader
time	ground_force1_vx	ground_force1_vy	ground_force1_vz	ground_force1_px	ground_force1_py	ground_force1_pz	ground_force2_vx	ground_force2_vy	ground_force2_vz	ground_force2_px	ground_force2_py	ground_force2_pz	ground_torque1_x	ground_torque1_y	ground_torque1_z	ground_torque2_x	ground_torque2_y	ground_torque2_z	
1.91333000000000	-7.99090100000000	40.32135800000000	-8.46552100000000	0.31552300000000	0.00000000000000	0.10291500000000	-58.42501900000000	809.61103200000002	-56.67402600000000	0.13349300000000	0.00000000000000	-0.08156400000000	0.00000000000000	-5.84956300000000	0.00000000000000	0.00000000000000	-22.95910000000000	0.00000000000000	
1.91501800000000	-8.71930000000000	47.02547700000000	-9.46246800000000	0.32201700000000	0.00000000000000	0.10397900000000	-58.89703000000000	806.58052499999997	-56.16244000000000	0.13285900000000	0.00000000000000	-0.08143400000000	0.00000000000000	-6.62694000000000	0.00000000000000	0.00000000000000	-22.81514900000000	0.00000000000000	
1.91667600000000	-9.28446100000000	53.75842700000000	-10.34835400000000	0.32814000000000	0.00000000000000	0.10494000000000	-59.37339000000000	803.43070699999998	-55.63266200000000	0.13224200000000	0.00000000000000	-0.08129900000000	0.00000000000000	-7.34626000000000	0.00000000000000	0.00000000000000	-22.67044300000000	0.00000000000000	
1.91832800000000	-9.66451200000000	60.43125200000000	-11.10090800000000	0.33392700000000	0.00000000000000	0.10581200000000	-59.85423400000000	800.16063499999996	-55.08492300000000	0.13164100000000	0.00000000000000	-0.08115800000000	0.00000000000000	-7.99034000000000	0.00000000000000	0.00000000000000	-22.52511100000000	0.00000000000000	
1.91999400000000	-9.84679900000000	66.97911600000000	-11.70587600000000	0.33940900000000	0.00000000000000	0.10660700000000	-60.33963900000000	796.76931999999999	-54.51945600000000	0.13105700000000	0.00000000000000	-0.08101200000000	0.00000000000000	-8.54721500000000	0.00000000000000	0.00000000000000	-22.37926800000000	0.00000000000000	
1.92166400000000	-9.82770200000000	73.36310300000000	-12.15705000000000	0.34460900000000	0.00000000000000	0.10733600000000	-60.82962100000000	793.25572199999999	-53.93649100000000	0.13049000000000	0.00000000000000	-0.08086100000000	0.00000000000000	-9.01036900000000	0.00000000000000	0.00000000000000	-22.23301200000000	0.00000000000000	
1.92332400000000	-9.61175100000000	79.56958000000000	-12.45563400000000	0.34954900000000	0.00000000000000	0.10800500000000	-61.32412900000000	789.61875599999996	-53.33625900000000	0.12993800000000	0.00000000000000	-0.08070500000000	0.00000000000000	-9.37849400000000	0.00000000000000	0.00000000000000	-22.08642900000000	0.00000000000000	
1.92499300000000	-9.21022800000000	85.60758400000000	-12.60911300000000	0.35424600000000	0.00000000000000	0.10862400000000	-61.82304400000000	785.85729200000003	-52.71898900000000	0.12940300000000	0.00000000000000	-0.08054400000000	0.00000000000000	-9.65484900000000	0.00000000000000	0.00000000000000	-21.93958600000000	0.00000000000000	
1.92665900000000	-8.63945500000000	91.50479500000000	-12.62980000000000	0.35871600000000	0.00000000000000	0.10919600000000	-62.32617100000000	781.97015999999996	-52.08491400000000	0.12888400000000	0.00000000000000	-0.08037800000000	0.00000000000000	-9.84635600000000	0.00000000000000	0.00000000000000	-21.79253500000000	0.00000000000000	
1.92832600000000	-7.91896400000000	97.30265400000000	-12.53323900000000	0.36297000000000	0.00000000000000	0.10972800000000	-62.83323700000000	777.95614999999998	-51.43426700000000	0.12838100000000	0.00000000000000	-0.08020700000000	0.00000000000000	-9.96253800000000	0.00000000000000	0.00000000000000	-21.64531200000000	0.00000000000000	
1.92999500000000	-7.06972700000000	103.05120400000000	-12.33661900000000	0.36702200000000	0.00000000000000	0.11022400000000	-63.34389000000000	773.81401900000003	-50.76728400000000	0.12789200000000	0.00000000000000	-0.08003000000000	0.00000000000000	-10.01442800000000	0.00000000000000	0.00000000000000	-21.49793600000000	0.00000000000000	
1.93165700000000	-6.11257100000000	108.80410600000000	-12.05733100000000	0.37088100000000	0.00000000000000	0.11068800000000	-63.85768900000000	769.54249300000004	-50.08420600000000	0.12741800000000	0.00000000000000	-0.07984900000000	0.00000000000000	-10.01353200000000	0.00000000000000	0.00000000000000	-21.35041000000000	0.00000000000000	
1.93332400000000	-5.06687500000000	114.61419500000000	-11.71175100000000	0.37455600000000	0.00000000000000	0.11112200000000	-64.37411100000000	765.14027299999998	-49.38528000000000	0.12695800000000	0.00000000000000	-0.07966300000000	0.00000000000000	-9.97092500000000	0.00000000000000	0.00000000000000	-21.20271900000000	0.00000000000000	
1.93499500000000	-3.94960700000000	120.52983999999999	-11.31431400000000	0.37805500000000	0.00000000000000	0.11153100000000	-64.89253900000000	760.60604000000001	-48.67075900000000	0.12651100000000	0.00000000000000	-0.07947200000000	0.00000000000000	-9.89653800000000	0.00000000000000	0.00000000000000	-21.05483200000000	0.00000000000000	
1.93665900000000	-2.77470800000000	126.59224800000000	-10.87689300000000	0.38138600000000	0.00000000000000	0.11191500000000	-65.41226600000000	755.93846099999996	-47.94090500000000	0.12607700000000	0.00000000000000	-0.07927700000000	0.00000000000000	-9.79864900000000	0.00000000000000	0.00000000000000	-20.90670100000000	0.00000000000000	
1.93833000000000	-1.55281700000000	132.83373700000001	-10.40848000000000	0.38455300000000	0.00000000000000	0.11227800000000	-65.93249200000000	751.13619700000004	-47.19599100000000	0.12565500000000	0.00000000000000	-0.07907700000000	0.00000000000000	-9.68358900000000	0.00000000000000	0.00000000000000	-20.75826100000000	0.00000000000000	
1.93999400000000	-0.29129200000000	139.27695199999999	-9.91514000000000	0.38756500000000	0.00000000000000	0.11262200000000	-66.45232200000000	746.19790799999998	-46.43629900000000	0.12524400000000	0.00000000000000	-0.07887200000000	0.00000000000000	-9.55565000000000	0.00000000000000	0.00000000000000	-20.60943200000000	0.00000000000000	
1.94166100000000	1.00552900000000	145.93490199999999	-9.40019000000000	0.39042600000000	0.00000000000000	0.11294700000000	-66.97076700000000	741.12226299999998	-45.66212800000000	0.12484300000000	0.00000000000000	-0.07866300000000	0.00000000000000	-9.41716100000000	0.00000000000000	0.00000000000000	-20.46012000000000	0.00000000000000	
1.94333200000000	2.33588400000000	152.81166300000001	-8.86455100000000	0.39314100000000	0.00000000000000	0.11325600000000	-67.48674200000001	735.90794900000003	-44.87379100000000	0.12445100000000	0.00000000000000	-0.07845000000000	0.00000000000000	-9.26870200000000	0.00000000000000	0.00000000000000	-20.31021100000000	0.00000000000000	
1.94499600000000	3.70003700000000	159.90357599999999	-8.30721200000000	0.39571500000000	0.00000000000000	0.11355000000000	-67.99907100000000	730.55368099999998	-44.07161600000000	0.12406800000000	0.00000000000000	-0.07823300000000	0.00000000000000	-9.10941200000000	0.00000000000000	0.00000000000000	-20.15958200000000	0.00000000000000	
